<?xml version="1.0" encoding="UTF-8" standalone="no"?><!DOCTYPE svg PUBLIC "-//W3C//DTD SVG 1.1//EN" "http://www.w3.org/Graphics/SVG/1.1/DTD/svg11.dtd"><svg width="100%" height="100%" viewBox="0 0 25 25" version="1.1" xmlns="http://www.w3.org/2000/svg" xmlns:xlink="http://www.w3.org/1999/xlink" xml:space="preserve" xmlns:serif="http://www.serif.com/" style="fill-rule:evenodd;clip-rule:evenodd;stroke-linejoin:round;stroke-miterlimit:1.41421;"><g><circle cx="12.5" cy="12.5" r="12" style="fill:#624daa;"/><path d="M17.833,11.833l-10.666,0c-0.369,0 -0.667,0.299 -0.667,0.667c0,0.368 0.298,0.667 0.667,0.667l10.666,0c0.369,0 0.667,-0.299 0.667,-0.667c0,-0.368 -0.298,-0.667 -0.667,-0.667Zm-4.862,-4.195c0.261,-0.26 0.261,-0.682 0,-0.943c-0.26,-0.26 -0.682,-0.26 -0.942,0l-5.334,5.334c-0.26,0.26 -0.26,0.682 0,0.942l5.334,5.334c0.26,0.26 0.682,0.26 0.942,0c0.261,-0.261 0.261,-0.683 0,-0.943l-4.862,-4.862l4.862,-4.862Z" style="fill:#fff;fill-rule:nonzero;"/></g></svg>