<?xml version="1.0" encoding="UTF-8" standalone="no"?><!DOCTYPE svg PUBLIC "-//W3C//DTD SVG 1.1//EN" "http://www.w3.org/Graphics/SVG/1.1/DTD/svg11.dtd"><svg width="100%" height="100%" viewBox="0 0 70 70" version="1.1" xmlns="http://www.w3.org/2000/svg" xmlns:xlink="http://www.w3.org/1999/xlink" xml:space="preserve" xmlns:serif="http://www.serif.com/" style="fill-rule:evenodd;clip-rule:evenodd;stroke-linejoin:round;stroke-miterlimit:1.41421;"><g><g><path d="M66.623,27.535c4.123,17.464 -6.693,34.965 -24.158,39.088c-17.465,4.123 -34.965,-6.693 -39.088,-24.158c-4.123,-17.465 6.693,-34.965 24.158,-39.088c17.464,-4.123 34.965,6.693 39.088,24.158" style="fill:#3a79bd;fill-rule:nonzero;"/><clipPath id="_clip1"><rect x="5" y="5" width="60" height="60" clip-rule="nonzero"/></clipPath><g clip-path="url(#_clip1)"><path d="M64.191,28.109c3.805,16.121 -6.178,32.275 -22.299,36.081c-16.123,3.807 -32.277,-6.177 -36.083,-22.299c-3.806,-16.122 6.178,-32.276 22.3,-36.081c16.122,-3.807 32.276,6.177 36.082,22.299" style="fill:#fff;fill-rule:nonzero;"/></g><path id="XMLID_118_" d="M51.105,48.117l-32.21,0c-1.11,0 -2.009,-0.899 -2.009,-2.009l0,-22.216c0,-1.11 0.899,-2.009 2.009,-2.009l32.21,0c1.11,0 2.009,0.899 2.009,2.009l0,22.216c0,1.11 -0.899,2.009 -2.009,2.009" style="fill:#3a79bd;fill-rule:nonzero;"/><path id="XMLID_117_" d="M45.619,29.378c0,2.07 -1.678,3.748 -3.748,3.748c-2.071,0 -3.748,-1.678 -3.748,-3.748c0,-2.07 1.677,-3.747 3.748,-3.747c2.07,0 3.748,1.677 3.748,3.747" style="fill:#e74c3d;fill-rule:nonzero;"/><path id="XMLID_116_" d="M49.991,29.378c0,2.07 -1.678,3.748 -3.748,3.748c-2.07,0 -3.748,-1.678 -3.748,-3.748c0,-2.07 1.678,-3.747 3.748,-3.747c2.07,0 3.748,1.677 3.748,3.747" style="fill:#f0c41b;fill-rule:nonzero;"/><path id="XMLID_115_" d="M25.631,26.255l-5.622,0c-0.345,0 -0.625,0.28 -0.625,0.625c0,0.345 0.28,0.625 0.625,0.625l5.622,0c0.345,0 0.624,-0.28 0.624,-0.625c0,-0.345 -0.279,-0.625 -0.624,-0.625" style="fill:#fff;fill-rule:nonzero;"/><path id="XMLID_114_" d="M34.375,26.88c0,-0.345 -0.279,-0.625 -0.624,-0.625l-5.622,0c-0.345,0 -0.624,0.28 -0.624,0.625c0,0.345 0.279,0.625 0.624,0.625l5.622,0c0.345,0 0.624,-0.28 0.624,-0.625" style="fill:#fff;fill-rule:nonzero;"/><path id="XMLID_113_" d="M20.634,29.378l-0.625,0c-0.345,0 -0.625,0.28 -0.625,0.625c0,0.345 0.28,0.625 0.625,0.625l0.625,0c0.345,0 0.624,-0.28 0.624,-0.625c0,-0.345 -0.279,-0.625 -0.624,-0.625" style="fill:#fff;fill-rule:nonzero;"/><path id="XMLID_112_" d="M24.381,29.378l-1.249,0c-0.345,0 -0.624,0.28 -0.624,0.625c0,0.345 0.279,0.625 0.624,0.625l1.249,0c0.346,0 0.625,-0.28 0.625,-0.625c0,-0.345 -0.279,-0.625 -0.625,-0.625" style="fill:#fff;fill-rule:nonzero;"/><path id="XMLID_111_" d="M27.505,29.378l-0.625,0c-0.345,0 -0.625,0.28 -0.625,0.625c0,0.345 0.28,0.625 0.625,0.625l0.625,0c0.345,0 0.624,-0.28 0.624,-0.625c0,-0.345 -0.279,-0.625 -0.624,-0.625" style="fill:#fff;fill-rule:nonzero;"/><path id="XMLID_110_" d="M31.252,29.378l-1.249,0c-0.345,0 -0.625,0.28 -0.625,0.625c0,0.345 0.28,0.625 0.625,0.625l1.249,0c0.346,0 0.625,-0.28 0.625,-0.625c0,-0.345 -0.279,-0.625 -0.625,-0.625" style="fill:#fff;fill-rule:nonzero;"/><path id="XMLID_109_" d="M33.314,29.56c-0.12,0.118 -0.188,0.274 -0.188,0.443c0,0.169 0.068,0.325 0.181,0.444c0.118,0.112 0.281,0.181 0.444,0.181c0.162,0 0.324,-0.069 0.443,-0.181c0.113,-0.119 0.181,-0.282 0.181,-0.444c0,-0.162 -0.068,-0.325 -0.181,-0.437c-0.231,-0.238 -0.656,-0.238 -0.88,-0.006" style="fill:#fff;fill-rule:nonzero;"/><rect id="XMLID_108_" x="20.009" y="39.997" width="5.622" height="3.748" style="fill:#1d6aaa;"/><rect id="XMLID_107_" x="28.129" y="39.997" width="5.622" height="3.748" style="fill:#1d6aaa;"/><rect id="XMLID_106_" x="36.249" y="39.997" width="5.622" height="3.748" style="fill:#1d6aaa;"/><rect id="XMLID_105_" x="44.369" y="39.997" width="5.622" height="3.748" style="fill:#1d6aaa;"/></g></g></svg>