<?xml version="1.0" encoding="UTF-8" standalone="no"?><!DOCTYPE svg PUBLIC "-//W3C//DTD SVG 1.1//EN" "http://www.w3.org/Graphics/SVG/1.1/DTD/svg11.dtd"><svg width="100%" height="100%" viewBox="0 0 35 35" version="1.1" xmlns="http://www.w3.org/2000/svg" xmlns:xlink="http://www.w3.org/1999/xlink" xml:space="preserve" xmlns:serif="http://www.serif.com/" style="fill-rule:evenodd;clip-rule:evenodd;stroke-linejoin:round;stroke-miterlimit:1.41421;"><g><path d="M27.813,5.125l0,-2.072c0,-1.134 -0.926,-2.053 -2.068,-2.053l-20.615,0c-1.142,0 -2.068,0.928 -2.068,2.053l0,24.769c0,1.134 0.926,2.053 2.068,2.053l2.058,0l0,2.072c0,1.134 0.925,2.053 2.067,2.053l20.615,0c1.142,0 2.068,-0.928 2.068,-2.053l0,-24.769c0,-1.134 -0.926,-2.053 -2.068,-2.053l-2.057,0Zm0,2.063l1.552,0c0.278,0 0.51,0.231 0.51,0.516l0,23.717c0,0.287 -0.228,0.517 -0.51,0.517l-19.605,0c-0.278,0 -0.51,-0.232 -0.51,-0.517l0,-1.546l16.495,0c1.142,0 2.068,-0.928 2.068,-2.053l0,-20.634Zm-2.063,-3.609l0,23.717c0,0.287 -0.228,0.517 -0.51,0.517l-19.605,0c-0.278,0 -0.51,-0.232 -0.51,-0.517l0,-23.717c0,-0.287 0.228,-0.516 0.51,-0.516l19.605,0c0.278,0 0.51,0.231 0.51,0.516Zm-4.125,9.28c0,-0.284 -0.236,-0.515 -0.516,-0.515l-11.343,0c-0.285,0 -0.516,0.239 -0.516,0.515c0,0.285 0.236,0.516 0.516,0.516l11.343,0c0.285,0 0.516,-0.239 0.516,-0.516Zm0,4.125c0,-0.284 -0.236,-0.515 -0.516,-0.515l-11.343,0c-0.285,0 -0.516,0.239 -0.516,0.515c0,0.285 0.236,0.516 0.516,0.516l11.343,0c0.285,0 0.516,-0.239 0.516,-0.516Zm0,4.125c0,-0.284 -0.236,-0.515 -0.516,-0.515l-11.343,0c-0.285,0 -0.516,0.239 -0.516,0.515c0,0.285 0.236,0.516 0.516,0.516l11.343,0c0.285,0 0.516,-0.239 0.516,-0.516Zm0,-12.375c0,-0.284 -0.236,-0.515 -0.516,-0.515l-11.343,0c-0.285,0 -0.516,0.239 -0.516,0.515c0,0.285 0.236,0.516 0.516,0.516l11.343,0c0.285,0 0.516,-0.239 0.516,-0.516Z" style="fill:#7e33ff;"/></g></svg>