<?xml version="1.0" encoding="UTF-8" standalone="no"?><!DOCTYPE svg PUBLIC "-//W3C//DTD SVG 1.1//EN" "http://www.w3.org/Graphics/SVG/1.1/DTD/svg11.dtd"><svg width="100%" height="100%" viewBox="0 0 65 65" version="1.1" xmlns="http://www.w3.org/2000/svg" xmlns:xlink="http://www.w3.org/1999/xlink" xml:space="preserve" xmlns:serif="http://www.serif.com/" style="fill-rule:evenodd;clip-rule:evenodd;stroke-linecap:round;stroke-linejoin:round;"><g><g><path d="M62.664,25.379c3.933,16.659 -6.384,33.352 -23.043,37.285c-16.66,3.933 -33.352,-6.384 -37.285,-23.043c-3.933,-16.66 6.384,-33.352 23.043,-37.285c16.659,-3.933 33.352,6.384 37.285,23.043" style="fill:#b08863;fill-rule:nonzero;"/><clipPath id="_clip1"><rect x="3.885" y="3.885" width="57.231" height="57.231" clip-rule="nonzero"/></clipPath><g clip-path="url(#_clip1)"><path d="M60.344,25.927c3.629,15.377 -5.893,30.786 -21.27,34.416c-15.378,3.631 -30.787,-5.892 -34.418,-21.27c-3.63,-15.378 5.893,-30.787 21.271,-34.416c15.378,-3.631 30.786,5.892 34.417,21.27" style="fill:#fff;fill-rule:nonzero;"/></g><path d="M45.268,25.398c0.341,0.424 0.273,1.05 -0.151,1.392l-15.659,12.595c-0.425,0.341 -1.052,0.273 -1.393,-0.151l-6.266,-7.791c-0.341,-0.425 -0.273,-1.051 0.151,-1.392l15.659,-12.595c0.424,-0.341 1.051,-0.273 1.392,0.151l6.267,7.791Z" style="fill:#539474;fill-rule:nonzero;"/><path d="M42.853,24.291l-3.289,-4.088c-0.937,0.754 -2.308,0.605 -3.062,-0.332l-11.956,9.617c0.754,0.937 0.605,2.308 -0.332,3.061l3.289,4.089c0.936,-0.754 2.307,-0.605 3.061,0.332l11.956,-9.617c-0.753,-0.937 -0.605,-2.308 0.333,-3.062" style="fill:#97d162;fill-rule:nonzero;"/><path d="M36.015,26.425c1.101,1.37 0.884,3.374 -0.486,4.477c-1.37,1.102 -3.375,0.884 -4.478,-0.486c-1.101,-1.371 -0.884,-3.375 0.486,-4.477c1.371,-1.102 3.375,-0.885 4.478,0.486" style="fill:#539474;fill-rule:nonzero;"/><path d="M40.634,24.828c0.407,0.362 0.443,0.991 0.081,1.398l-13.368,15.004c-0.362,0.407 -0.991,0.444 -1.397,0.081l-7.466,-6.651c-0.406,-0.362 -0.443,-0.991 -0.081,-1.397l13.368,-15.006c0.362,-0.406 0.991,-0.442 1.398,-0.08l7.465,6.651Z" style="fill:#62ad88;fill-rule:nonzero;"/><path d="M38.07,24.134l-3.918,-3.49c-0.799,0.898 -2.176,0.978 -3.074,0.178l-10.207,11.457c0.898,0.8 0.977,2.177 0.177,3.075l3.918,3.49c0.8,-0.898 2.176,-0.978 3.074,-0.178l10.208,-11.457c-0.898,-0.8 -0.978,-2.176 -0.178,-3.075" style="fill:#abde7d;fill-rule:nonzero;"/><path d="M31.677,27.367c1.313,1.169 1.429,3.182 0.26,4.495c-1.17,1.313 -3.183,1.429 -4.496,0.26c-1.313,-1.17 -1.429,-3.183 -0.259,-4.496c1.169,-1.313 3.183,-1.429 4.495,-0.259" style="fill:#62ad88;fill-rule:nonzero;"/><path d="M45.857,46.812c0,0.524 -0.426,0.95 -0.95,0.95l-24.079,0c-0.524,0 -0.949,-0.426 -0.949,-0.95l0,-18.361c0,-0.525 0.425,-0.95 0.949,-0.95l24.079,0c0.524,0 0.95,0.425 0.95,0.95l0,18.361Z" style="fill:#b08863;fill-rule:nonzero;"/><path d="M19.879,37.631l0,9.181c0,0.524 0.425,0.95 0.95,0.95l24.078,0c0.525,0 0.95,-0.426 0.95,-0.95l0,-9.181l-25.978,0Z" style="fill:#ebe3d8;fill-rule:nonzero;"/><path d="M20.339,29.4l0.317,0" style="fill:none;stroke:#87684c;stroke-width:1px;"/><path d="M21.277,29.4l22.053,0" style="fill:none;stroke:#87684c;stroke-width:1px;stroke-dasharray:1.96,1.96;"/><path d="M43.641,29.4l0.316,0l0,0.317" style="fill:none;stroke:#87684c;stroke-width:1px;"/><path d="M43.957,30.35l0,14.879" style="fill:none;stroke:#87684c;stroke-width:1px;stroke-dasharray:2,2;"/><path d="M43.957,45.546l0,0.316l-0.316,0" style="fill:none;stroke:#87684c;stroke-width:1px;"/><path d="M43.019,45.862l-22.052,0" style="fill:none;stroke:#87684c;stroke-width:1px;stroke-dasharray:1.96,1.96;"/><path d="M20.656,45.862l-0.317,0" style="fill:none;stroke:#87684c;stroke-width:1px;"/><path d="M46.846,39.241c0,0.524 -0.425,0.949 -0.95,0.949l-6.911,0c-0.525,0 -0.95,-0.425 -0.95,-0.949l0,-3.219c0,-0.525 0.425,-0.95 0.95,-0.95l6.911,0c0.525,0 0.95,0.425 0.95,0.95l0,3.219Z" style="fill:#87684c;fill-rule:nonzero;"/><path d="M41.649,37.631c0,0.772 -0.626,1.399 -1.398,1.399c-0.772,0 -1.399,-0.627 -1.399,-1.399c0,-0.772 0.627,-1.398 1.399,-1.398c0.772,0 1.398,0.626 1.398,1.398" style="fill:#edd0b6;fill-rule:nonzero;"/></g></g></svg>