<?xml version="1.0" encoding="UTF-8" standalone="no"?><!DOCTYPE svg PUBLIC "-//W3C//DTD SVG 1.1//EN" "http://www.w3.org/Graphics/SVG/1.1/DTD/svg11.dtd"><svg width="100%" height="100%" viewBox="0 0 20 20" version="1.1" xmlns="http://www.w3.org/2000/svg" xmlns:xlink="http://www.w3.org/1999/xlink" xml:space="preserve" xmlns:serif="http://www.serif.com/" style="fill-rule:evenodd;clip-rule:evenodd;stroke-linejoin:round;stroke-miterlimit:1.41421;"><g><circle cx="10" cy="10" r="9.5" style="fill:#a9b1b7;"/><path d="M13.344,13.346l-1.407,0l0,-2.205c0,-0.525 -0.011,-1.202 -0.733,-1.202c-0.734,0 -0.846,0.572 -0.846,1.163l0,2.244l-1.407,0l0,-4.533l1.352,0l0,0.617l0.018,0c0.189,-0.356 0.648,-0.732 1.334,-0.732c1.425,0 1.689,0.938 1.689,2.159l0,2.489l0,0Zm-5.981,-5.154c-0.453,0 -0.817,-0.366 -0.817,-0.817c0,-0.451 0.364,-0.817 0.817,-0.817c0.451,0 0.817,0.366 0.817,0.817c0,0.451 -0.367,0.817 -0.817,0.817Zm0.705,5.154l-1.411,0l0,-4.533l1.411,0l0,4.533Zm5.979,-8.096l-8.096,0c-0.387,0 -0.701,0.306 -0.701,0.684l0,8.132c0,0.378 0.314,0.684 0.701,0.684l8.095,0c0.387,0 0.704,-0.306 0.704,-0.684l0,-8.132c0,-0.378 -0.317,-0.684 -0.704,-0.684l0.001,0Z" style="fill:#fff;fill-rule:nonzero;"/></g></svg>