<?xml version="1.0" encoding="UTF-8" standalone="no"?><!DOCTYPE svg PUBLIC "-//W3C//DTD SVG 1.1//EN" "http://www.w3.org/Graphics/SVG/1.1/DTD/svg11.dtd"><svg width="100%" height="100%" viewBox="0 0 40 40" version="1.1" xmlns="http://www.w3.org/2000/svg" xmlns:xlink="http://www.w3.org/1999/xlink" xml:space="preserve" xmlns:serif="http://www.serif.com/" style="fill-rule:evenodd;clip-rule:evenodd;stroke-linejoin:round;stroke-miterlimit:1.41421;"><path d="M33.374,33.382l-5.627,0l0,-8.817c0,-2.103 -0.043,-4.809 -2.932,-4.809c-2.934,0 -3.382,2.288 -3.382,4.654l0,8.972l-5.627,0l0,-18.132l5.405,0l0,2.472l0.073,0c0.755,-1.425 2.592,-2.93 5.336,-2.93c5.701,0 6.756,3.753 6.756,8.638l0,9.952l-0.002,0Zm-23.924,-20.613c-1.811,0 -3.266,-1.466 -3.266,-3.27c0,-1.801 1.456,-3.266 3.266,-3.266c1.805,0 3.268,1.465 3.268,3.266c0,1.804 -1.464,3.27 -3.268,3.27Zm2.822,20.613l-5.643,0l0,-18.132l5.643,0l0,18.132Zm23.918,-32.382l-32.386,0c-1.55,0 -2.804,1.226 -2.804,2.738l0,32.524c0,1.514 1.254,2.738 2.804,2.738l32.381,0c1.548,0 2.815,-1.224 2.815,-2.738l0,-32.524c0,-1.512 -1.267,-2.738 -2.815,-2.738l0.005,0Z" style="fill:#0077b5;fill-rule:nonzero;"/></svg>