<?xml version="1.0" encoding="UTF-8" standalone="no"?><!DOCTYPE svg PUBLIC "-//W3C//DTD SVG 1.1//EN" "http://www.w3.org/Graphics/SVG/1.1/DTD/svg11.dtd"><svg width="100%" height="100%" viewBox="0 0 20 20" version="1.1" xmlns="http://www.w3.org/2000/svg" xmlns:xlink="http://www.w3.org/1999/xlink" xml:space="preserve" xmlns:serif="http://www.serif.com/" style="fill-rule:evenodd;clip-rule:evenodd;stroke-linejoin:round;stroke-miterlimit:1.41421;"><g><path d="M14.138,9.604c-0.218,0 -0.395,-0.177 -0.395,-0.396l0,-4.174c0,-2.063 -1.679,-3.742 -3.743,-3.742c-0.999,0 -1.938,0.389 -2.646,1.096c-0.707,0.708 -1.096,1.647 -1.096,2.646l0,4.084c0,0.219 -0.177,0.396 -0.396,0.396c-0.205,0 -0.374,-0.156 -0.394,-0.355c-0.001,-0.014 -0.002,-4.027 -0.002,-4.041l0,-0.084c0,-1.21 0.472,-2.349 1.329,-3.205c0.857,-0.857 1.995,-1.329 3.205,-1.329c2.5,0 4.534,2.034 4.534,4.534l0,4.174c0,0.219 -0.177,0.396 -0.396,0.396Z" style="fill:#6365f2;fill-rule:nonzero;stroke:#6365f2;stroke-width:0.5px;"/><path d="M10.002,14.817c-0.911,0 -1.652,-0.742 -1.652,-1.653c0,-0.911 0.741,-1.653 1.652,-1.653c0.912,0 1.653,0.742 1.653,1.653c0,0.911 -0.741,1.653 -1.653,1.653Zm0,-2.514c-0.474,0 -0.861,0.386 -0.861,0.861c0,0.475 0.387,0.861 0.861,0.861c0.475,0 0.861,-0.386 0.861,-0.861c0,-0.475 -0.386,-0.861 -0.861,-0.861Z" style="fill:#6365f2;fill-rule:nonzero;stroke:#6365f2;stroke-width:0.5px;"/><path d="M10.002,16.729l0,0c-0.219,0 -0.396,-0.177 -0.396,-0.396l0,-1.912c0,-0.219 0.178,-0.396 0.396,-0.396l0.001,0c0.218,0 0.395,0.177 0.395,0.396l0,1.913c0,0.218 -0.178,0.395 -0.396,0.395Z" style="fill:#6365f2;fill-rule:nonzero;stroke:#6365f2;stroke-width:0.5px;"/><path d="M14.354,19.5l-8.708,0c-1.091,0 -1.979,-0.888 -1.979,-1.979l0,-6.729c0,-1.091 0.888,-1.979 1.979,-1.979l8.708,0c1.091,0 1.979,0.888 1.979,1.979l0,6.729c0,1.091 -0.888,1.979 -1.979,1.979Zm-8.708,-9.896c-0.655,0 -1.188,0.533 -1.188,1.188l0,6.729c0,0.655 0.533,1.187 1.188,1.187l8.708,0c0.655,0 1.188,-0.532 1.188,-1.187l0,-6.729c0,-0.655 -0.533,-1.188 -1.188,-1.188l-8.708,0Z" style="fill:#6365f2;fill-rule:nonzero;stroke:#6365f2;stroke-width:0.5px;"/></g></svg>