<?xml version="1.0" encoding="UTF-8" standalone="no"?><!DOCTYPE svg PUBLIC "-//W3C//DTD SVG 1.1//EN" "http://www.w3.org/Graphics/SVG/1.1/DTD/svg11.dtd"><svg width="100%" height="100%" viewBox="0 0 150 150" version="1.1" xmlns="http://www.w3.org/2000/svg" xmlns:xlink="http://www.w3.org/1999/xlink" xml:space="preserve" xmlns:serif="http://www.serif.com/" style="fill-rule:evenodd;clip-rule:evenodd;stroke-linejoin:round;stroke-miterlimit:1.41421;"><g><path d="M45.809,61.799c-2.045,-2.231 -5.578,-2.417 -7.809,-0.372c-2.231,2.045 -2.417,5.578 -0.372,7.809l28.076,30.493c1.115,1.115 2.417,1.859 3.904,1.859l0.186,0c1.487,0 2.975,-0.558 3.904,-1.673l71.026,-70.84c2.231,-2.231 2.231,-5.763 0,-7.809c-2.232,-2.045 -5.764,-2.231 -7.809,0l-66.935,66.749l-24.171,-26.216Z" style="fill:url(#_Linear1);fill-rule:nonzero;"/><path d="M143.422,69.422c-3.161,0 -5.578,2.417 -5.578,5.578c0,34.583 -28.261,62.844 -62.844,62.844c-34.583,0 -62.844,-28.261 -62.844,-62.844c0,-34.583 28.261,-62.844 62.844,-62.844c3.161,0 5.578,-2.417 5.578,-5.578c0,-3.161 -2.417,-5.578 -5.578,-5.578c-40.719,0 -74,33.281 -74,74c0,40.719 33.281,74 74,74c40.719,0 74,-33.281 74,-74c0,-3.161 -2.417,-5.578 -5.578,-5.578Z" style="fill:url(#_Linear2);fill-rule:nonzero;"/></g><defs><linearGradient id="_Linear1" x1="0" y1="0" x2="1" y2="0" gradientUnits="userSpaceOnUse" gradientTransform="matrix(1.02096e-14,166.735,-166.735,1.02096e-14,91.3003,-1.23116)"><stop offset="0" style="stop-color:#00efd1;stop-opacity:1"/><stop offset="1" style="stop-color:#00acea;stop-opacity:1"/></linearGradient><linearGradient id="_Linear2" x1="0" y1="0" x2="1" y2="0" gradientUnits="userSpaceOnUse" gradientTransform="matrix(1.02096e-14,166.735,-166.735,1.02096e-14,75,-1.23116)"><stop offset="0" style="stop-color:#00efd1;stop-opacity:1"/><stop offset="1" style="stop-color:#00acea;stop-opacity:1"/></linearGradient></defs></svg>