<?xml version="1.0" encoding="UTF-8" standalone="no"?><!DOCTYPE svg PUBLIC "-//W3C//DTD SVG 1.1//EN" "http://www.w3.org/Graphics/SVG/1.1/DTD/svg11.dtd"><svg width="100%" height="100%" viewBox="0 0 150 30" version="1.1" xmlns="http://www.w3.org/2000/svg" xmlns:xlink="http://www.w3.org/1999/xlink" xml:space="preserve" xmlns:serif="http://www.serif.com/" style="fill-rule:evenodd;clip-rule:evenodd;stroke-linejoin:round;stroke-miterlimit:1.41421;"><g><path d="M1.914,27.5c0,0 0,-11.55 0,-16.34c0,-2.5 2.546,-5.141 3.974,-6.36c3.432,-2.93 7.899,-2.493 11.757,-0.643c0.241,0.156 0.484,0.314 0.701,0.502c0.525,0.454 1.044,0.918 1.523,1.421c0.539,0.565 1.165,1.502 1.477,2.21c0.928,2.103 0.279,4.391 1.161,6.525c0.225,0.544 0.513,1.069 0.867,1.54c0.341,0.454 0.743,0.873 1.201,1.208c2.37,1.733 5.267,0.924 7.482,-0.618l3.045,2.943c0,0 -3.941,2.804 -7.409,2.74c0,0 -9.942,-0.183 -10.048,-11.468c-0.069,-0.248 -0.139,-0.499 -0.254,-0.729c-0.273,-0.544 -0.561,-1.084 -0.907,-1.585c-0.691,-1 -1.865,-1.77 -3.05,-2.022c-3.225,-0.686 -6.305,1.164 -7.156,4.336l0,16.239l-4.364,0.101Zm15.224,-12.078c0,0 1.424,3.585 2.131,4.162c0,0 -3.185,3.907 -9.642,2.74c0,0 0.855,-2.96 0.914,-3.958c0,0 4.25,1.095 6.597,-2.944Zm3.654,-9.844c0,0 6.449,-6.925 14.209,0l-2.871,2.728c0,0 -5.092,-4.35 -9.207,1.421c0,0 -0.81,-2.983 -2.131,-4.149Z" style="fill:#624daa;"/><text x="43.29px" y="19.325px" style="font-family:'Averta-Semibold';font-size:17.333px;fill:#666;">P<tspan x="54.039px " y="19.325px ">e</tspan>ople chain</text></g></svg>