<?xml version="1.0" encoding="UTF-8" standalone="no"?><!DOCTYPE svg PUBLIC "-//W3C//DTD SVG 1.1//EN" "http://www.w3.org/Graphics/SVG/1.1/DTD/svg11.dtd"><svg width="100%" height="100%" viewBox="0 0 20 20" version="1.1" xmlns="http://www.w3.org/2000/svg" xmlns:xlink="http://www.w3.org/1999/xlink" xml:space="preserve" xmlns:serif="http://www.serif.com/" style="fill-rule:evenodd;clip-rule:evenodd;stroke-linejoin:round;stroke-miterlimit:1.41421;"><g><circle cx="10" cy="10" r="9.5" style="fill:#a9b1b7;"/><path d="M15.821,6.381c-0.431,0.19 -0.891,0.319 -1.375,0.378c0.493,-0.298 0.873,-0.767 1.053,-1.326c-0.463,0.27 -0.976,0.467 -1.523,0.576c-0.436,-0.467 -1.058,-0.759 -1.749,-0.759c-1.323,0 -2.396,1.073 -2.396,2.395c0,0.19 0.022,0.372 0.062,0.547c-1.992,-0.094 -3.757,-1.05 -4.939,-2.496c-0.208,0.351 -0.324,0.76 -0.324,1.205c0,0.833 0.424,1.565 1.066,1.995c-0.393,-0.013 -0.763,-0.121 -1.085,-0.3l0,0.029c0,1.162 0.824,2.131 1.921,2.351c-0.201,0.054 -0.413,0.083 -0.631,0.083c-0.153,0 -0.299,-0.014 -0.446,-0.041c0.307,0.951 1.191,1.644 2.242,1.664c-0.818,0.642 -1.855,1.025 -2.972,1.025c-0.189,0 -0.379,-0.011 -0.569,-0.033c1.066,0.679 2.322,1.076 3.68,1.076c4.409,0 6.818,-3.651 6.818,-6.811c0,-0.102 0,-0.205 -0.008,-0.307c0.468,-0.336 0.877,-0.76 1.198,-1.241l-0.023,-0.01Z" style="fill:#fff;fill-rule:nonzero;"/></g></svg>