<?xml version="1.0" encoding="UTF-8" standalone="no"?><!DOCTYPE svg PUBLIC "-//W3C//DTD SVG 1.1//EN" "http://www.w3.org/Graphics/SVG/1.1/DTD/svg11.dtd"><svg width="100%" height="100%" viewBox="0 0 30 30" version="1.1" xmlns="http://www.w3.org/2000/svg" xmlns:xlink="http://www.w3.org/1999/xlink" xml:space="preserve" xmlns:serif="http://www.serif.com/" style="fill-rule:evenodd;clip-rule:evenodd;stroke-linejoin:round;stroke-miterlimit:1.41421;"><g><path d="M26.903,5.654l-3.01,2.987c-0.785,-0.459 -1.789,-0.327 -2.43,0.318l-10.111,10.109c-0.079,-0.053 -0.154,-0.112 -0.224,-0.176l-5.855,-5.343c-0.445,-0.405 -0.698,-0.979 -0.698,-1.581c0,-1.174 0.966,-2.141 2.14,-2.141c0.515,0 1.013,0.186 1.402,0.524l4.5,3.896l11.448,-11.448c0.377,-0.377 0.889,-0.589 1.422,-0.589c1.104,0 2.013,0.909 2.013,2.013c0,0.537 -0.215,1.053 -0.597,1.431l0,0Z" style="fill:#979797;fill-rule:nonzero;"/><path d="M24.834,11.23c-0.123,-0.124 -0.263,-0.231 -0.415,-0.318c-0.785,-0.459 -1.79,-0.327 -2.43,0.318l-10.112,10.109l-1.336,1.336l-4.499,-3.896c-0.389,-0.337 -0.887,-0.522 -1.401,-0.522c-1.175,0 -2.141,0.966 -2.141,2.141c0,0.6 0.253,1.174 0.696,1.58l5.859,5.342c0.707,0.645 1.809,0.622 2.488,-0.051l13.288,-13.187c0.38,-0.378 0.594,-0.892 0.594,-1.428c0,-0.534 -0.213,-1.046 -0.591,-1.424Z" style="fill:#979797;fill-rule:nonzero;"/></g></svg>