<?xml version="1.0" encoding="UTF-8" standalone="no"?><!DOCTYPE svg PUBLIC "-//W3C//DTD SVG 1.1//EN" "http://www.w3.org/Graphics/SVG/1.1/DTD/svg11.dtd"><svg width="100%" height="100%" viewBox="0 0 65 65" version="1.1" xmlns="http://www.w3.org/2000/svg" xmlns:xlink="http://www.w3.org/1999/xlink" xml:space="preserve" xmlns:serif="http://www.serif.com/" style="fill-rule:evenodd;clip-rule:evenodd;stroke-linejoin:round;stroke-miterlimit:1.41421;"><g><path d="M62.664,25.379c3.933,16.659 -6.384,33.352 -23.043,37.285c-16.66,3.933 -33.352,-6.384 -37.285,-23.043c-3.933,-16.66 6.384,-33.352 23.043,-37.285c16.659,-3.933 33.352,6.384 37.285,23.043" style="fill:#f89f36;fill-rule:nonzero;"/><clipPath id="_clip1"><rect x="3.885" y="3.885" width="57.231" height="57.231" clip-rule="nonzero"/></clipPath><g clip-path="url(#_clip1)"><path d="M60.344,25.927c3.629,15.377 -5.893,30.786 -21.27,34.416c-15.378,3.631 -30.787,-5.892 -34.418,-21.27c-3.63,-15.378 5.893,-30.787 21.271,-34.416c15.378,-3.631 30.786,5.892 34.417,21.27" style="fill:#fff;fill-rule:nonzero;"/></g><path d="M37.316,39.34c-1.674,0.786 -3.442,0.818 -5.234,0.878c-0.494,0.008 -0.987,-0.008 -1.533,0.002c-0.016,-2.261 -0.031,-4.47 -0.048,-6.731c2.312,-0.044 4.595,-0.268 6.77,0.653c1.126,0.473 1.793,1.319 1.817,2.592c-0.003,1.273 -0.663,2.091 -1.772,2.606m-6.909,-15.052c1.896,-0.035 3.74,-0.225 5.468,0.523c1.153,0.472 1.743,1.397 1.685,2.515c-0.055,1.197 -0.715,2.068 -1.929,2.479c-1.653,0.577 -3.395,0.584 -5.189,0.54c-0.012,-1.976 -0.021,-3.951 -0.035,-6.057m14.63,10.853c-0.237,-1.477 -0.986,-2.607 -2.298,-3.336c-0.603,-0.327 -1.258,-0.549 -1.939,-0.822c0.076,-0.054 0.128,-0.106 0.18,-0.133c3.217,-1.724 2.836,-6.734 0.44,-8.405c-0.974,-0.684 -2.049,-1.105 -3.17,-1.344c-0.809,-0.167 -1.618,-0.282 -2.451,-0.396c-0.028,-1.456 -0.038,-3.457 -0.069,-5.068l-3.04,0.057c0.003,1.585 0.039,3.534 0.041,4.965c-0.858,0.015 -1.637,0.03 -2.443,0.044c-0.027,-1.429 -0.038,-3.378 -0.067,-4.963l-3.013,0.056c0.003,1.612 0.041,3.612 0.041,5.042c-2.079,0.014 -4.08,0.05 -6.159,0.064c0.022,1.117 0.015,2.156 0.035,3.248c0.441,-0.008 0.832,-0.015 1.196,0.004c0.389,-0.007 0.778,-0.015 1.143,0.004c1.067,0.059 1.624,0.646 1.643,1.686c0.029,4.34 0.06,8.706 0.114,13.047c0.018,0.96 -0.39,1.333 -1.326,1.35c-0.676,0.012 -1.351,0.025 -2.027,0.038c-0.185,1.225 -0.371,2.398 -0.556,3.623c2.053,-0.012 4.08,-0.024 6.159,-0.037c0.03,1.559 0.04,3.534 0.071,5.172l3.041,-0.057c-0.005,-1.638 -0.041,-3.561 -0.044,-5.095c0.858,0.011 1.639,0.022 2.444,0.033c0.03,1.559 0.039,3.456 0.069,5.041l3.04,-0.056c-0.006,-1.637 -0.042,-3.56 -0.043,-5.068c0.104,-0.028 0.181,-0.029 0.259,-0.057c1.451,-0.261 2.93,-0.419 4.326,-0.782c1.837,-0.503 3.272,-1.596 4.018,-3.429c0.519,-1.414 0.621,-2.897 0.385,-4.426" style="fill:#f89f36;fill-rule:nonzero;"/></g></svg>