<?xml version="1.0" encoding="UTF-8" standalone="no"?><!DOCTYPE svg PUBLIC "-//W3C//DTD SVG 1.1//EN" "http://www.w3.org/Graphics/SVG/1.1/DTD/svg11.dtd"><svg width="100%" height="100%" viewBox="0 0 65 65" version="1.1" xmlns="http://www.w3.org/2000/svg" xmlns:xlink="http://www.w3.org/1999/xlink" xml:space="preserve" xmlns:serif="http://www.serif.com/" style="fill-rule:evenodd;clip-rule:evenodd;stroke-linejoin:round;stroke-miterlimit:1.41421;"><g><path d="M62.664,25.379c3.933,16.659 -6.384,33.352 -23.043,37.285c-16.66,3.933 -33.352,-6.384 -37.285,-23.043c-3.933,-16.66 6.384,-33.352 23.043,-37.285c16.659,-3.933 33.352,6.384 37.285,23.043" style="fill:#6d75b6;fill-rule:nonzero;"/><clipPath id="_clip1"><rect x="3.885" y="3.885" width="57.231" height="57.231" clip-rule="nonzero"/></clipPath><g clip-path="url(#_clip1)"><path d="M60.344,25.927c3.629,15.377 -5.893,30.786 -21.27,34.416c-15.378,3.631 -30.787,-5.892 -34.418,-21.27c-3.63,-15.378 5.893,-30.787 21.271,-34.416c15.378,-3.631 30.786,5.892 34.417,21.27" style="fill:#fff;fill-rule:nonzero;"/></g><path d="M32.956,41.192l0,8.477l10.515,-14.781l-10.515,6.304Z" style="fill:#6d75b6;fill-rule:nonzero;"/><path d="M43.069,32.151l-10.114,-16.82l0,12.233l10.114,4.587Z" style="fill:#6d75b6;fill-rule:nonzero;"/><path d="M32.956,28.529l0,10.436l10.033,-5.875l-10.033,-4.561Z" style="fill:#6d75b6;fill-rule:nonzero;"/><path d="M21.957,32.151l10.114,-16.82l0,12.233l-10.114,4.587Z" style="fill:#6d75b6;fill-rule:nonzero;"/><path d="M32.07,28.529l0,10.436l-10.06,-5.875l10.06,-4.561Z" style="fill:#6d75b6;fill-rule:nonzero;"/><path d="M32.044,41.192l0,8.477l-10.516,-14.781l10.516,6.304Z" style="fill:#6d75b6;fill-rule:nonzero;"/></g></svg>