<?xml version="1.0" encoding="UTF-8" standalone="no"?><!DOCTYPE svg PUBLIC "-//W3C//DTD SVG 1.1//EN" "http://www.w3.org/Graphics/SVG/1.1/DTD/svg11.dtd"><svg width="100%" height="100%" viewBox="0 0 40 40" version="1.1" xmlns="http://www.w3.org/2000/svg" xmlns:xlink="http://www.w3.org/1999/xlink" xml:space="preserve" xmlns:serif="http://www.serif.com/" style="fill-rule:evenodd;clip-rule:evenodd;stroke-linejoin:round;stroke-miterlimit:1.41421;"><g><path d="M36.904,1l-33.808,0c-1.157,0 -2.096,0.939 -2.096,2.096l0,33.808c0,1.159 0.939,2.096 2.096,2.096l18.199,0l0,-14.716l-4.954,0l0,-5.733l4.954,0l0,-4.235c0,-4.907 2.999,-7.576 7.377,-7.576c2.098,0 3.901,0.153 4.427,0.223l0,5.13l-3.042,0c-2.375,0 -2.837,1.141 -2.837,2.804l0,3.659l5.675,0l-0.737,5.748l-4.938,0l0,14.696l9.682,0c1.161,0 2.098,-0.937 2.098,-2.096l0,-33.808c0,-1.157 -0.937,-2.096 -2.096,-2.096" style="fill:#3b5998;fill-rule:nonzero;"/></g></svg>