<?xml version="1.0" encoding="UTF-8" standalone="no"?><!DOCTYPE svg PUBLIC "-//W3C//DTD SVG 1.1//EN" "http://www.w3.org/Graphics/SVG/1.1/DTD/svg11.dtd"><svg width="100%" height="100%" viewBox="0 0 20 20" version="1.1" xmlns="http://www.w3.org/2000/svg" xmlns:xlink="http://www.w3.org/1999/xlink" xml:space="preserve" xmlns:serif="http://www.serif.com/" style="fill-rule:evenodd;clip-rule:evenodd;stroke-linejoin:round;stroke-miterlimit:1.41421;"><g><circle cx="10" cy="10" r="9.5" style="fill:#a9b1b7;"/><path d="M14.226,5.25l-8.452,0c-0.289,0 -0.524,0.235 -0.524,0.524l0,8.452c0,0.29 0.235,0.524 0.524,0.524l4.55,0l0,-3.679l-1.239,0l0,-1.433l1.239,0l0,-1.059c0,-1.227 0.75,-1.894 1.844,-1.894c0.524,0 0.975,0.038 1.107,0.056l0,1.282l-0.761,0c-0.593,0 -0.709,0.286 -0.709,0.701l0,0.915l1.419,0l-0.184,1.437l-1.235,0l0,3.674l2.421,0c0.29,0 0.524,-0.234 0.524,-0.524l0,-8.452c0,-0.289 -0.234,-0.524 -0.524,-0.524" style="fill:#fff;fill-rule:nonzero;"/></g></svg>