<?xml version="1.0" encoding="UTF-8" standalone="no"?><!DOCTYPE svg PUBLIC "-//W3C//DTD SVG 1.1//EN" "http://www.w3.org/Graphics/SVG/1.1/DTD/svg11.dtd"><svg width="100%" height="100%" viewBox="0 0 40 40" version="1.1" xmlns="http://www.w3.org/2000/svg" xmlns:xlink="http://www.w3.org/1999/xlink" xml:space="preserve" xmlns:serif="http://www.serif.com/" style="fill-rule:evenodd;clip-rule:evenodd;stroke-linejoin:round;stroke-miterlimit:1.41421;"><g><path d="M20.377,17.282l0,6.518l10.789,0c-0.43,2.8 -3.26,8.201 -10.779,8.201c-6.481,0 -11.775,-5.376 -11.775,-12.003c0,-6.626 5.282,-12.002 11.768,-12.002c3.696,0 6.169,1.576 7.578,2.932l5.16,-4.963c-3.311,-3.098 -7.606,-4.965 -12.731,-4.965c-10.52,-0.005 -19.012,8.507 -19.012,18.998c0,10.49 8.497,19.002 19.002,19.002c10.976,0 18.248,-7.711 18.248,-18.569c0,-1.247 -0.134,-2.203 -0.298,-3.149l-17.95,0Z" style="fill:#dc4e41;fill-rule:nonzero;"/></g></svg>