<?xml version="1.0" encoding="UTF-8" standalone="no"?><!DOCTYPE svg PUBLIC "-//W3C//DTD SVG 1.1//EN" "http://www.w3.org/Graphics/SVG/1.1/DTD/svg11.dtd"><svg width="100%" height="100%" viewBox="0 0 25 25" version="1.1" xmlns="http://www.w3.org/2000/svg" xmlns:xlink="http://www.w3.org/1999/xlink" xml:space="preserve" xmlns:serif="http://www.serif.com/" style="fill-rule:evenodd;clip-rule:evenodd;stroke-linejoin:round;stroke-miterlimit:1.41421;"><g><path d="M9.559,6.204c0,0 -0.229,-2.222 2.963,-2.222c3.191,0 2.963,2.222 2.963,2.222l1.481,0c0,0 -0.061,-3.704 -4.444,-3.704c-4.383,0 -4.444,3.704 -4.444,3.704l1.481,0Z" style="fill:#333;fill-opacity:0.5;"/><path d="M13.278,13.452l11.127,-2.063l0,-2.222c0,-1.637 -0.208,-2.143 -2.253,-2.143l-19.26,0c-2.045,0 -2.297,0.506 -2.297,2.143l0,11.111c0,1.636 0.252,2.222 2.297,2.222l19.26,0c2.045,0 2.253,-0.586 2.253,-2.222l0,-8.148l-11.196,2.031l-1.413,0.006l-10.963,-2.037l0,-0.741l10.906,2.088l0.047,0l1.428,-0.025l0.064,0Zm-1.492,0.715l1.428,0" style="fill:#333;fill-opacity:0.5;"/></g></svg>