<?xml version="1.0" encoding="UTF-8" standalone="no"?><!DOCTYPE svg PUBLIC "-//W3C//DTD SVG 1.1//EN" "http://www.w3.org/Graphics/SVG/1.1/DTD/svg11.dtd"><svg width="100%" height="100%" viewBox="0 0 100 100" version="1.1" xmlns="http://www.w3.org/2000/svg" xmlns:xlink="http://www.w3.org/1999/xlink" xml:space="preserve" xmlns:serif="http://www.serif.com/" style="fill-rule:evenodd;clip-rule:evenodd;stroke-linejoin:round;stroke-miterlimit:1.41421;"><g><g><path d="M56.743,22.854c0,0 19.044,-20.447 41.957,0l-8.476,8.057c0,0 -15.036,-12.845 -27.187,4.196c0,0 -2.393,-8.809 -6.294,-12.253Z" style="fill:#fff;"/><path d="M45.954,51.925c0,0 4.206,10.586 6.294,12.287c0,0 -9.405,11.539 -28.471,8.092c0,0 2.523,-8.74 2.697,-11.688c0,0 12.549,3.235 19.48,-8.691Z" style="fill:#fff;"/><path d="M1,87.588c0,0 0,-34.105 0,-48.251c0,-7.381 3.624,-15.412 10.836,-20.679c12.398,-9.053 23.977,-7.571 35.617,0c0.711,0.463 1.427,0.929 2.069,1.484c1.55,1.341 3.082,2.712 4.497,4.196c1.591,1.669 3.438,4.435 4.361,6.526c2.741,6.21 0.825,12.964 3.428,19.266c0.664,1.608 1.514,3.158 2.56,4.549c1.008,1.339 2.193,2.577 3.546,3.566c6.999,5.118 15.553,2.728 22.095,-1.825l8.991,8.691c0,0 -11.638,8.28 -21.878,8.092c0,0 -29.358,-0.541 -29.669,-33.866c-0.205,-0.731 -0.195,-0.639 -0.753,-2.15c-0.622,-1.687 -1.655,-3.203 -2.677,-4.682c-2.04,-2.953 -5.506,-5.226 -9.005,-5.971c-9.523,-2.026 -18.619,3.438 -21.131,12.803l0,47.951l-12.887,0.3" style="fill:#fff;"/></g></g></svg>