<?xml version="1.0" encoding="UTF-8" standalone="no"?><!DOCTYPE svg PUBLIC "-//W3C//DTD SVG 1.1//EN" "http://www.w3.org/Graphics/SVG/1.1/DTD/svg11.dtd"><svg width="100%" height="100%" viewBox="0 0 30 30" version="1.1" xmlns="http://www.w3.org/2000/svg" xmlns:xlink="http://www.w3.org/1999/xlink" xml:space="preserve" xmlns:serif="http://www.serif.com/" style="fill-rule:evenodd;clip-rule:evenodd;stroke-linejoin:round;stroke-miterlimit:1.41421;"><g><path d="M18.041,26.24l-14.863,0c-0.365,0 -0.678,-0.287 -0.678,-0.678l0,-1.643c0,-1.095 0.495,-2.138 1.382,-2.816c2.529,-1.982 5.111,-3.26 5.658,-3.547c0.079,-0.026 0.105,-0.104 0.105,-0.182l0,-1.565c-0.417,-0.678 -0.626,-1.46 -0.73,-2.138c-0.235,-0.026 -0.548,-0.365 -0.887,-1.564c-0.469,-1.643 0.026,-1.878 0.443,-1.852c-0.313,-0.86 -0.313,-1.695 -0.104,-2.503c0.209,-0.913 0.704,-1.669 1.278,-2.242c0.365,-0.366 0.756,-0.705 1.173,-0.965c0.339,-0.235 0.73,-0.444 1.147,-0.574c0.313,-0.104 0.678,-0.182 1.043,-0.209c1.148,-0.104 2.008,0.183 2.608,0.548c0.913,0.522 1.278,1.173 1.278,1.173c0,0 2.32,0.157 1.304,5.033c0.312,0.104 0.521,0.548 0.182,1.825c-0.443,1.565 -0.86,1.669 -1.095,1.487c-0.104,0.547 -0.261,1.147 -0.522,1.695c0,0.756 0,1.486 0,1.799c-0.704,1.069 -1.121,2.347 -1.121,3.703c0,2.138 0.939,3.989 2.399,5.215Zm7.953,-8.788c2.008,2.008 2.008,5.267 0,7.301c-2.008,2.008 -5.267,2.008 -7.301,0c-2.008,-2.007 -2.008,-5.293 0,-7.301c2.034,-2.034 5.293,-2.034 7.301,0Zm-2.66,3.651l1.278,-1.278l-0.991,-0.991l-1.277,1.278l-1.278,-1.278l-0.991,0.991l1.278,1.278l-1.278,1.277l0.991,0.991l1.278,-1.277l1.277,1.277l0.991,-0.991l-1.278,-1.277Z" style="fill:#979797;fill-rule:nonzero;"/></g></svg>