<?xml version="1.0" encoding="UTF-8" standalone="no"?><!DOCTYPE svg PUBLIC "-//W3C//DTD SVG 1.1//EN" "http://www.w3.org/Graphics/SVG/1.1/DTD/svg11.dtd"><svg width="100%" height="100%" viewBox="0 0 20 20" version="1.1" xmlns="http://www.w3.org/2000/svg" xmlns:xlink="http://www.w3.org/1999/xlink" xml:space="preserve" xmlns:serif="http://www.serif.com/" style="fill-rule:evenodd;clip-rule:evenodd;stroke-linejoin:round;stroke-miterlimit:1.41421;"><g><path d="M9.933,0.505c-0.043,0.007 -0.084,0.021 -0.122,0.04l-7.556,3.643c-0.147,0.072 -0.242,0.221 -0.243,0.385l0,2.921c0,5.35 3.202,9.935 7.813,11.969c0.111,0.049 0.239,0.049 0.35,0c4.612,-2.034 7.813,-6.619 7.813,-11.969l0,-2.921c-0.001,-0.164 -0.096,-0.313 -0.243,-0.385l-7.556,-3.643c-0.079,-0.039 -0.169,-0.053 -0.256,-0.04Zm0.067,0.904l7.124,3.441l0,2.644c0,4.935 -2.914,9.146 -7.124,11.085c-4.21,-1.939 -7.124,-6.15 -7.124,-11.085l0,-2.644l7.124,-3.441Zm3.846,5.566c-0.097,0.01 -0.187,0.053 -0.257,0.121l-4.662,4.46l-2.078,-2.078c-0.081,-0.084 -0.193,-0.131 -0.309,-0.131c-0.237,0 -0.432,0.195 -0.432,0.432c0,0.118 0.048,0.231 0.134,0.313l2.375,2.375c0.165,0.162 0.432,0.165 0.6,0.006l4.966,-4.749c0.09,-0.082 0.141,-0.198 0.141,-0.32c0,-0.237 -0.195,-0.432 -0.431,-0.432c-0.016,0 -0.032,0.001 -0.047,0.003Z" style="fill:#999;fill-rule:nonzero;stroke:#999;stroke-width:0.5px;"/></g></svg>