<?xml version="1.0" encoding="UTF-8" standalone="no"?><!DOCTYPE svg PUBLIC "-//W3C//DTD SVG 1.1//EN" "http://www.w3.org/Graphics/SVG/1.1/DTD/svg11.dtd"><svg width="100%" height="100%" viewBox="0 0 20 20" version="1.1" xmlns="http://www.w3.org/2000/svg" xmlns:xlink="http://www.w3.org/1999/xlink" xml:space="preserve" xmlns:serif="http://www.serif.com/" style="fill-rule:evenodd;clip-rule:evenodd;stroke-linejoin:round;stroke-miterlimit:1.41421;"><g><path d="M17.094,20l-14.188,0c-1.611,0 -2.921,-1.31 -2.921,-2.921l0,-8.346c0,-1.611 1.31,-2.921 2.921,-2.921l14.188,0c1.611,0 2.921,1.31 2.921,2.921l0,8.346c0,1.61 -1.31,2.921 -2.921,2.921Zm-14.188,-13.353c-1.151,0 -2.086,0.936 -2.086,2.086l0,8.346c0,1.15 0.935,2.086 2.086,2.086l14.188,0c1.151,0 2.086,-0.936 2.086,-2.086l0,-8.346c0,-1.15 -0.935,-2.086 -2.086,-2.086l-14.188,0Z" style="fill:#999;fill-rule:nonzero;stroke:#999;stroke-width:0.3px;"/><path d="M16.259,14.158c-0.69,0 -1.252,-0.562 -1.252,-1.252c0,-0.69 0.562,-1.252 1.252,-1.252c0.691,0 1.252,0.562 1.252,1.252c0,0.69 -0.561,1.252 -1.252,1.252Zm0,-1.669c-0.229,0 -0.417,0.187 -0.417,0.417c0,0.23 0.188,0.417 0.417,0.417c0.23,0 0.418,-0.187 0.418,-0.417c0,-0.23 -0.188,-0.417 -0.418,-0.417Z" style="fill:#999;fill-rule:nonzero;stroke:#999;stroke-width:0.3px;"/><path d="M19.598,15.827l-3.339,0c-1.61,0 -2.921,-1.31 -2.921,-2.921c0,-1.611 1.311,-2.921 2.921,-2.921l3.339,0c0.23,0 0.417,0.187 0.417,0.417l0,5.008c0,0.23 -0.187,0.417 -0.417,0.417Zm-3.339,-5.007c-1.151,0 -2.086,0.936 -2.086,2.086c0,1.15 0.935,2.087 2.086,2.087l2.921,0l0,-4.173l-2.921,0Z" style="fill:#999;fill-rule:nonzero;stroke:#999;stroke-width:0.3px;"/><path d="M0.402,9.15c-0.23,0 -0.417,-0.187 -0.417,-0.418c0,-1.689 1.007,-3.203 2.564,-3.856l10.627,-4.457c0.97,-0.542 2.064,-0.562 2.959,-0.035c0.862,0.507 1.376,1.439 1.376,2.492l0,3.353c0,0.23 -0.187,0.417 -0.417,0.417c-0.23,0 -0.417,-0.186 -0.417,-0.417l0,-3.353c0,-0.755 -0.361,-1.418 -0.964,-1.773c-0.635,-0.374 -1.427,-0.349 -2.172,0.065l-10.669,4.478c-1.247,0.522 -2.052,1.733 -2.052,3.086c0,0.231 -0.187,0.418 -0.418,0.418Z" style="fill:#999;fill-rule:nonzero;stroke:#999;stroke-width:0.3px;"/><path d="M7.914,6.647c-0.169,0 -0.328,-0.104 -0.391,-0.271c-0.081,-0.216 0.027,-0.457 0.244,-0.538l6.676,-2.504c0.215,-0.081 0.457,0.029 0.538,0.244c0.082,0.216 -0.028,0.456 -0.244,0.537l-6.677,2.504c-0.048,0.018 -0.097,0.028 -0.146,0.028Z" style="fill:#999;fill-rule:nonzero;stroke:#999;stroke-width:0.3px;"/></g></svg>