<?xml version="1.0" encoding="UTF-8" standalone="no"?><!DOCTYPE svg PUBLIC "-//W3C//DTD SVG 1.1//EN" "http://www.w3.org/Graphics/SVG/1.1/DTD/svg11.dtd"><svg width="100%" height="100%" viewBox="0 0 70 70" version="1.1" xmlns="http://www.w3.org/2000/svg" xmlns:xlink="http://www.w3.org/1999/xlink" xml:space="preserve" xmlns:serif="http://www.serif.com/" style="fill-rule:evenodd;clip-rule:evenodd;stroke-linejoin:round;stroke-miterlimit:1.41421;"><g><path d="M17.69,15.68l25.912,-7.073l-1.372,-2.774c-0.898,-1.803 -3.088,-2.548 -4.891,-1.65l-23.197,11.497l3.548,0Z" style="fill:#fff;fill-rule:nonzero;"/><path d="M51.646,8.811c-0.321,0 -0.642,0.044 -0.964,0.131l-6.087,1.665l-18.591,5.073l30.299,0l-1.139,-4.176c-0.438,-1.627 -1.912,-2.693 -3.518,-2.693Z" style="fill:#fff;fill-rule:nonzero;"/><path d="M60.106,18.234l-0.832,0l-1.132,0l-1.131,0l-8.635,0l-31.73,0l-4.161,0l-3.503,0l-0.65,0l-2.175,0c-1.153,0 -2.183,0.533 -2.854,1.373c-0.307,0.386 -0.54,0.832 -0.672,1.321c-0.08,0.306 -0.131,0.627 -0.131,0.956l0,40.664c0,2.015 1.635,3.65 3.65,3.65l53.949,0c2.014,0 3.649,-1.635 3.649,-3.65l0,-10.182l-21.657,0c-3.423,0 -6.204,-2.781 -6.204,-6.205l0,-3.343l0,-1.131l0,-1.132l0,-2.51c0,-1.679 0.671,-3.205 1.759,-4.322c0.963,-0.992 2.255,-1.664 3.701,-1.832c0.241,-0.029 0.489,-0.044 0.737,-0.044l21.664,0l0,-9.963c0.007,-2.015 -1.628,-3.65 -3.642,-3.65Z" style="fill:#fff;fill-rule:nonzero;"/><path d="M66.31,35.336c-0.365,-0.335 -0.795,-0.591 -1.277,-0.759c-0.372,-0.124 -0.767,-0.197 -1.183,-0.197l-0.095,0l-0.073,0l-1.131,0l-4.08,0l-16.38,0c-2.014,0 -3.649,1.635 -3.649,3.65l0,8.124c0,2.015 1.635,3.65 3.649,3.65l21.759,0c0.416,0 0.811,-0.073 1.183,-0.197c0.482,-0.161 0.912,-0.424 1.277,-0.76c0.73,-0.664 1.19,-1.627 1.19,-2.693l0,-8.124c0,-1.066 -0.46,-2.029 -1.19,-2.694Zm-16.598,7.482c0,1.008 -0.818,1.825 -1.825,1.825l-1.212,0c-1.007,0 -1.825,-0.817 -1.825,-1.825l0,-1.211c0,-0.584 0.27,-1.103 0.701,-1.431c0.314,-0.241 0.701,-0.394 1.124,-0.394l1.212,0c1.007,0 1.825,0.817 1.825,1.825l0,1.211Z" style="fill:#fff;fill-rule:nonzero;"/></g></svg>