<?xml version="1.0" encoding="UTF-8" standalone="no"?><!DOCTYPE svg PUBLIC "-//W3C//DTD SVG 1.1//EN" "http://www.w3.org/Graphics/SVG/1.1/DTD/svg11.dtd"><svg width="100%" height="100%" viewBox="0 0 30 30" version="1.1" xmlns="http://www.w3.org/2000/svg" xmlns:xlink="http://www.w3.org/1999/xlink" xml:space="preserve" xmlns:serif="http://www.serif.com/" style="fill-rule:evenodd;clip-rule:evenodd;stroke-linejoin:round;stroke-miterlimit:1.41421;"><g><g><path d="M7.011,6.083l11.959,-3.265l-0.633,-1.28c-0.414,-0.832 -1.425,-1.176 -2.257,-0.761l-10.707,5.306l1.638,0Z" style="fill:#ffb125;fill-rule:nonzero;"/><path d="M22.683,2.913c-0.148,0 -0.297,0.02 -0.445,0.06l-2.81,0.768l-8.58,2.342l13.984,0l-0.525,-1.927c-0.203,-0.751 -0.883,-1.243 -1.624,-1.243Z" style="fill:#ffb125;fill-rule:nonzero;"/><path d="M26.587,7.262l-0.384,0l-0.522,0l-0.522,0l-3.986,0l-14.644,0l-1.92,0l-1.617,0l-0.3,0l-1.004,0c-0.532,0 -1.007,0.246 -1.317,0.633c-0.142,0.179 -0.25,0.384 -0.31,0.61c-0.037,0.142 -0.061,0.29 -0.061,0.441l0,18.769c0,0.929 0.755,1.684 1.684,1.684l24.9,0c0.93,0 1.684,-0.755 1.684,-1.684l0,-4.7l-9.995,0c-1.58,0 -2.864,-1.284 -2.864,-2.864l0,-1.543l0,-0.522l0,-0.522l0,-1.159c0,-0.775 0.31,-1.479 0.812,-1.994c0.445,-0.458 1.041,-0.768 1.708,-0.846c0.111,-0.013 0.226,-0.02 0.341,-0.02l9.998,0l0,-4.599c0.004,-0.929 -0.751,-1.684 -1.681,-1.684Z" style="fill:#ff6d3a;fill-rule:nonzero;"/><path d="M29.451,15.155c-0.169,-0.155 -0.367,-0.273 -0.59,-0.35c-0.172,-0.057 -0.353,-0.091 -0.545,-0.091l-0.044,0l-0.034,0l-0.522,0l-1.883,0l-7.56,0c-0.93,0 -1.685,0.755 -1.685,1.684l0,3.75c0,0.93 0.755,1.684 1.685,1.684l10.043,0c0.192,0 0.374,-0.033 0.545,-0.091c0.223,-0.074 0.421,-0.195 0.59,-0.35c0.337,-0.306 0.549,-0.751 0.549,-1.243l0,-3.75c0,-0.491 -0.212,-0.936 -0.549,-1.243Zm-7.661,3.453c0,0.465 -0.377,0.843 -0.842,0.843l-0.559,0c-0.465,0 -0.843,-0.378 -0.843,-0.843l0,-0.559c0,-0.269 0.125,-0.509 0.324,-0.66c0.145,-0.111 0.323,-0.182 0.519,-0.182l0.559,0c0.465,0 0.842,0.377 0.842,0.842l0,0.559Z" style="fill:#ffb125;fill-rule:nonzero;"/></g></g></svg>